<?xml version="1.0" standalone="no"?>
<!DOCTYPE svg PUBLIC "-//W3C//DTD SVG 20010904//EN"
 "http://www.w3.org/TR/2001/REC-SVG-20010904/DTD/svg10.dtd">
<svg version="1.0" xmlns="http://www.w3.org/2000/svg"
 width="256.000000pt" height="256.000000pt" viewBox="0 0 256.000000 256.000000"
 preserveAspectRatio="xMidYMid meet">

<g transform="translate(0.000000,256.000000) scale(0.100000,-0.100000)"
fill="#000000" stroke="none">
<path d="M1113 2550 c-71 -10 -190 -39 -215 -52 -15 -7 -18 -23 -18 -92 l0
-84 -37 -7 c-85 -16 -311 -98 -442 -161 l-140 -67 -5 -51 c-4 -28 -35 -472
-71 -986 -35 -514 -67 -961 -70 -992 l-6 -58 184 0 185 0 6 158 c16 393 40
665 79 897 l22 129 30 0 30 0 3 -230 2 -231 108 -23 c152 -32 152 -32 152 -78
0 -21 -2 -41 -5 -44 -3 -2 -53 6 -112 18 -159 34 -143 49 -143 -132 l0 -155
74 -34 c146 -67 361 -125 461 -125 l45 0 0 1114 0 1114 -62 7 c-100 10 -170
33 -166 53 5 24 42 39 131 51 99 14 185 14 283 0 177 -24 175 -74 -3 -99 l-83
-12 0 -1117 0 -1117 74 7 c146 14 293 57 429 125 l67 34 0 155 c0 180 16 165
-143 131 -59 -12 -109 -20 -112 -18 -3 3 -5 24 -5 47 l0 42 130 28 130 28 2
230 3 231 30 0 c30 0 30 -1 46 -82 41 -202 73 -545 85 -900 l7 -202 189 0 189
0 -5 52 c-4 29 -38 476 -76 993 -38 517 -72 963 -75 991 l-6 51 -137 66 c-124
59 -318 130 -429 157 l-43 11 0 85 c0 83 -1 85 -27 95 -109 43 -400 69 -540
49z"/>
</g>
</svg>
